<svg xmlns="http://www.w3.org/2000/svg" width="500" height="500">

<g fill="#fff7a8">

<polygon points="250,20 258,70 300,78 258,86 250,140 242,86 200,78 242,70"></polygon>

<polygon points="100,150 105,180 135,185 105,190 100,220 95,190 65,185 95,180"></polygon>

<polygon points="390,120 395,150 425,155 395,160 390,190 385,160 355,155 385,150"></polygon>

<polygon points="120,360 125,390 155,395 125,400 120,430 115,400 85,395 115,390"></polygon>

<polygon points="390,340 395,370 425,375 395,380 390,410 385,380 355,375 385,370"></polygon>

</g>

</svg>